# xmcd
#
# Track frame offsets:
#	150
#	17926
#	37781
#	50322
#	62031
#	75027
#	86785
#	98045
#	112410
#	127202
#	144445
#	163622
#	174412
#	191785
#	208462
#	223476
#	238933
#	254347
#	270691
#	283975
#	301994
#	315683
#	327425
#	339953
#
# Disc length: 4785 seconds
#
# Revision: 0
# Processed by: cddbd v1.5.2PL0 Copyright (c) Steve Scherf et al.
# Submitted via: dBpowerAMP V4.0
#
DISCID=7312af18
DTITLE=Various Artist - The Best Country Album...Ever! CD1
DYEAR=2006
DGENRE=Country
TTITLE0=Man! I feel Like A Woman - Shania Twain
TTITLE1=Dance The Night Away - The Mavericks
TTITLE2=9 to 5 - Dolly Parton
TTITLE3=Ring Of Fire - Johnny Cash
TTITLE4=Rose Garden - Lynn Anderson
TTITLE5=Dream Baby - Roy Orbison
TTITLE6=King Of the road - Roger Miller
TTITLE7=Rhunestone Cowboy - Glen Campbell
TTITLE8=Let Your Love Know - Bellamy Brothers
TTITLE9=Convoy - C W McCall
TTITLE10=I Am A Man Of Constant Sorrow - The Soggy Bottom Boys
TTITLE11=Walk On By - Leroy Van Dyke
TTITLE12=It's Five O'clock Somewhere - Alan Jackson And Jimmy Buffett
TTITLE13=Polk Salad Annie - Tony Joe White
TTITLE14=Lay Down Sally - Asleep At The Wheel
TTITLE15=I Like It' I Love It - Tim McGraw
TTITLE16=Achy Breaky Heart - Billy Ray Cyrus
TTITLE17=The Devil Went Down To georgia - The Charlie Daniels Band
TTITLE18=Six Days On The Road - The Flying Burrito Brothers
TTITLE19=Wave On Wave - Pat Green
TTITLE20=Ruby, Don't Take Your Love to town - Kenny Rodgers and The First Edition
TTITLE21=Walkin After Midnight - Patsy Cline
TTITLE22=I Love You Because - Jim Reeves
TTITLE23=From a Distance - Nanci Griffith
EXTD=
EXTT0=
EXTT1=
EXTT2=
EXTT3=
EXTT4=
EXTT5=
EXTT6=
EXTT7=
EXTT8=
EXTT9=
EXTT10=
EXTT11=
EXTT12=
EXTT13=
EXTT14=
EXTT15=
EXTT16=
EXTT17=
EXTT18=
EXTT19=
EXTT20=
EXTT21=
EXTT22=
EXTT23=
PLAYORDER=
